<svg width="206" height="82" viewBox="0 0 206 82" fill="none" xmlns="http://www.w3.org/2000/svg">
<path d="M0.426453 1.45312H33.6296V9.26562H23.864V54.1875H39.489C40.1725 54.1875 40.7829 53.9271 41.32 53.4062C41.8571 52.8691 42.264 52.1855 42.5407 51.3555C42.8337 50.5254 43.0453 49.6872 43.1755 48.8408C43.322 47.9945 43.3952 47.1725 43.3952 46.375V38.5625H52.1843V62H0.426453V54.1875H8.23895V9.26562H0.426453V1.45312ZM72.4061 17.9326C75.2707 16.8096 78.3062 16.248 81.5126 16.248C84.719 16.248 87.7463 16.8096 90.5946 17.9326C93.4592 19.0557 95.9494 20.6263 98.0653 22.6445C100.181 24.6465 101.85 27.1204 103.07 30.0664C104.307 33.0124 104.926 36.2188 104.926 39.6855C104.926 43.1523 104.307 46.3587 103.07 49.3047C101.85 52.2507 100.181 54.7327 98.0653 56.751C95.9494 58.7529 93.4592 60.3154 90.5946 61.4385C87.7463 62.5615 84.719 63.123 81.5126 63.123C78.3062 63.123 75.2707 62.5615 72.4061 61.4385C69.5578 60.3154 67.0757 58.7529 64.9599 56.751C62.8602 54.7327 61.192 52.2507 59.955 49.3047C58.7343 46.3587 58.1239 43.1523 58.1239 39.6855C58.1239 36.2188 58.7343 33.0124 59.955 30.0664C61.192 27.1204 62.8602 24.6465 64.9599 22.6445C67.0757 20.6263 69.5578 19.0557 72.4061 17.9326ZM81.5126 24.0605C80.3733 24.0605 79.356 24.2233 78.4608 24.5488C77.5657 24.8743 76.7437 25.4115 75.995 26.1602C75.2463 26.9089 74.6278 27.8773 74.1395 29.0654C73.6675 30.2536 73.2932 31.7347 73.0165 33.5088C72.7561 35.2829 72.6259 37.3418 72.6259 39.6855C72.6259 42.0293 72.7561 44.0882 73.0165 45.8623C73.2932 47.6364 73.6675 49.1175 74.1395 50.3057C74.6278 51.4938 75.2463 52.4622 75.995 53.2109C76.7437 53.9596 77.5657 54.4967 78.4608 54.8223C79.356 55.1478 80.3733 55.3105 81.5126 55.3105C82.9449 55.3105 84.19 55.042 85.2479 54.5049C86.3059 53.9515 87.2255 53.0726 88.0067 51.8682C88.8043 50.6637 89.3983 49.0443 89.789 47.0098C90.1959 44.9753 90.3993 42.5339 90.3993 39.6855C90.3993 36.8372 90.1959 34.3958 89.789 32.3613C89.3983 30.3268 88.8043 28.7074 88.0067 27.5029C87.2255 26.2985 86.3059 25.4277 85.2479 24.8906C84.19 24.3372 82.9449 24.0605 81.5126 24.0605ZM139.161 8.28906C139.161 6.12435 139.918 4.28516 141.432 2.77148C142.962 1.24154 144.809 0.476562 146.974 0.476562C147.788 0.476562 148.585 0.598633 149.366 0.842773C150.375 1.15202 151.254 1.55892 152.003 2.06348C152.768 2.56803 153.386 3.12142 153.858 3.72363C154.331 4.32585 154.713 5.02572 155.006 5.82324C155.299 6.60449 155.494 7.39388 155.592 8.19141C155.706 8.97266 155.763 9.84342 155.763 10.8037C155.763 11.7965 155.567 12.8382 155.177 13.9287C154.786 15.0192 154.265 16.0527 153.614 17.0293C152.98 17.9896 152.28 18.8929 151.515 19.7393C150.766 20.5693 149.993 21.3018 149.195 21.9365C151.621 24.3291 152.833 27.2669 152.833 30.75C152.833 33.3542 152.263 35.6735 151.124 37.708C150.001 39.7262 148.447 41.362 146.461 42.6152C144.475 43.8522 142.205 44.7881 139.65 45.4229C137.11 46.0576 134.344 46.375 131.349 46.375C128.875 46.375 126.507 46.0983 124.244 45.5449C122.763 45.7728 121.624 46.1715 120.826 46.7412C120.029 47.3109 119.63 47.8398 119.63 48.3281C119.63 48.8164 119.833 49.264 120.24 49.6709C120.647 50.0778 121.095 50.2812 121.583 50.2812H135.255C142.14 50.2812 147.112 51.266 150.172 53.2354C153.248 55.2048 154.786 58.4518 154.786 62.9766C154.786 65.1576 154.518 67.1351 153.981 68.9092C153.443 70.6995 152.711 72.2214 151.783 73.4746C150.872 74.7441 149.741 75.859 148.39 76.8193C147.039 77.7959 145.623 78.5771 144.142 79.1631C142.661 79.749 141.009 80.221 139.186 80.5791C137.363 80.9372 135.597 81.1813 133.888 81.3115C132.179 81.458 130.356 81.5312 128.419 81.5312C125.327 81.5312 122.527 81.1895 120.021 80.5059C117.53 79.8385 115.48 78.9189 113.868 77.7471C112.273 76.5752 111.044 75.2243 110.182 73.6943C109.319 72.1807 108.888 70.5612 108.888 68.8359C108.888 65.304 110.914 62.5452 114.967 60.5596C113.388 59.762 112.143 58.6715 111.232 57.2881C110.32 55.8883 109.864 54.2038 109.864 52.2344C109.864 50.0371 110.499 48.0433 111.769 46.2529C113.038 44.4626 114.747 43.1605 116.896 42.3467C114.991 40.9958 113.502 39.3519 112.428 37.415C111.37 35.4782 110.841 33.2565 110.841 30.75C110.841 28.6667 111.207 26.7949 111.94 25.1348C112.688 23.4746 113.689 22.0993 114.942 21.0088C116.212 19.902 117.726 18.9906 119.483 18.2744C121.258 17.542 123.121 17.0212 125.074 16.7119C127.027 16.4027 129.119 16.248 131.349 16.248C136.492 16.248 140.878 17.0944 144.508 18.7871C145.338 17.8268 145.981 16.9235 146.437 16.0771C144.402 15.9469 142.677 15.1331 141.261 13.6357C139.861 12.1383 139.161 10.3561 139.161 8.28906ZM131.837 23.9141C129.542 23.9141 127.744 24.5732 126.442 25.8916C125.156 27.21 124.513 29.1143 124.513 31.6045C124.513 34.111 125.164 36.0641 126.466 37.4639C127.768 38.8473 129.558 39.5391 131.837 39.5391C134.099 39.5391 135.882 38.8392 137.184 37.4395C138.502 36.0234 139.161 34.0785 139.161 31.6045C139.161 29.1468 138.51 27.2507 137.208 25.916C135.906 24.5814 134.116 23.9141 131.837 23.9141ZM124.391 62C122.519 63.3346 121.583 64.9622 121.583 66.8828C121.583 68.8197 122.185 70.1136 123.39 70.7646C124.594 71.432 126.922 71.7656 130.372 71.7656C138.185 71.7656 142.091 69.8125 142.091 65.9062C142.091 64.9297 141.684 64.0345 140.87 63.2207C140.056 62.4069 139.161 62 138.185 62H124.391ZM172.567 17.9326C175.431 16.8096 178.467 16.248 181.673 16.248C184.88 16.248 187.907 16.8096 190.755 17.9326C193.62 19.0557 196.11 20.6263 198.226 22.6445C200.342 24.6465 202.01 27.1204 203.231 30.0664C204.468 33.0124 205.086 36.2188 205.086 39.6855C205.086 43.1523 204.468 46.3587 203.231 49.3047C202.01 52.2507 200.342 54.7327 198.226 56.751C196.11 58.7529 193.62 60.3154 190.755 61.4385C187.907 62.5615 184.88 63.123 181.673 63.123C178.467 63.123 175.431 62.5615 172.567 61.4385C169.718 60.3154 167.236 58.7529 165.12 56.751C163.021 54.7327 161.353 52.2507 160.116 49.3047C158.895 46.3587 158.284 43.1523 158.284 39.6855C158.284 36.2188 158.895 33.0124 160.116 30.0664C161.353 27.1204 163.021 24.6465 165.12 22.6445C167.236 20.6263 169.718 19.0557 172.567 17.9326ZM181.673 24.0605C180.534 24.0605 179.517 24.2233 178.621 24.5488C177.726 24.8743 176.904 25.4115 176.156 26.1602C175.407 26.9089 174.788 27.8773 174.3 29.0654C173.828 30.2536 173.454 31.7347 173.177 33.5088C172.917 35.2829 172.786 37.3418 172.786 39.6855C172.786 42.0293 172.917 44.0882 173.177 45.8623C173.454 47.6364 173.828 49.1175 174.3 50.3057C174.788 51.4938 175.407 52.4622 176.156 53.2109C176.904 53.9596 177.726 54.4967 178.621 54.8223C179.517 55.1478 180.534 55.3105 181.673 55.3105C183.105 55.3105 184.351 55.042 185.409 54.5049C186.466 53.9515 187.386 53.0726 188.167 51.8682C188.965 50.6637 189.559 49.0443 189.95 47.0098C190.356 44.9753 190.56 42.5339 190.56 39.6855C190.56 36.8372 190.356 34.3958 189.95 32.3613C189.559 30.3268 188.965 28.7074 188.167 27.5029C187.386 26.2985 186.466 25.4277 185.409 24.8906C184.351 24.3372 183.105 24.0605 181.673 24.0605Z" fill="white"/>
</svg>
